<svg width="117" height="56" viewBox="0 0 117 56" fill="none" xmlns="http://www.w3.org/2000/svg">
<path d="M58.5795 22.661C65.2744 22.661 70.7012 28.1057 70.7013 34.8195C70.7013 36.6098 70.3152 38.3094 69.6226 39.8398L58.5795 29.5299L47.5338 39.8411C46.8409 38.3105 46.4552 36.6102 46.4552 34.8195C46.4552 28.1057 51.8825 22.661 58.5795 22.661Z" fill="#ffffff"/>
<path d="M58.0304 37.2155H55.7515C55.6879 37.2155 55.637 37.2665 55.637 37.3303V39.6157C55.637 39.6773 55.6879 39.7284 55.7515 39.7284H58.0304C58.0919 39.7284 58.1428 39.6773 58.1428 39.6157V37.3303C58.1428 37.2665 58.0919 37.2155 58.0304 37.2155Z" fill="#ffffff"/>
<path d="M61.221 37.2155H58.942C58.8784 37.2155 58.8276 37.2665 58.8276 37.3303V39.6157C58.8276 39.6773 58.8784 39.7284 58.942 39.7284H61.221C61.2846 39.7284 61.3355 39.6773 61.3355 39.6157V37.3303C61.3355 37.2665 61.2846 37.2155 61.221 37.2155Z" fill="#ffffff"/>
<path d="M58.0304 40.415H55.7515C55.6879 40.415 55.637 40.4661 55.637 40.5298V42.8152C55.637 42.879 55.6879 42.93 55.7515 42.93H58.0304C58.0919 42.93 58.1428 42.879 58.1428 42.8152V40.5298C58.1428 40.4661 58.0919 40.415 58.0304 40.415Z" fill="#ffffff"/>
<path d="M61.221 40.415H58.942C58.8784 40.415 58.8276 40.4661 58.8276 40.5298V42.8152C58.8276 42.879 58.8784 42.93 58.942 42.93H61.221C61.2846 42.93 61.3355 42.879 61.3355 42.8152V40.5298C61.3355 40.4661 61.2846 40.415 61.221 40.415Z" fill="#ffffff"/>
<path d="M1.1872 13.199C1.98431 12.3997 2.93407 12 4.03646 12C5.13886 12 6.08437 12.3997 6.87725 13.199C7.67437 13.9942 8.07293 14.9423 8.07293 16.0478C8.07293 17.1533 7.67437 18.1058 6.87725 18.9051C6.08437 19.7002 5.13886 20.0957 4.03646 20.0957C2.93407 20.0957 1.98431 19.7002 1.1872 18.9051C0.394319 18.1058 0 17.1533 0 16.0478C0 14.9423 0.394319 13.9942 1.1872 13.199ZM0.534238 24.22V44H7.34365V24.22H0.534238Z" fill="#ffffff"/>
<path d="M10.0183 44V24.22H16.8277V26.3035H16.904C18.6679 24.5304 20.5504 23.6418 22.5517 23.6418C23.9869 23.6418 25.3331 23.9394 26.5881 24.5347C27.8432 25.1257 28.7929 26.0356 29.4374 27.2644C31.4323 24.8493 33.6096 23.6418 35.967 23.6418C38.07 23.6418 39.8763 24.2349 41.3857 25.4191C42.8994 26.599 43.6583 28.4507 43.6583 30.9721V44H36.8574V32.8174C36.8574 31.763 36.5691 30.8849 35.9924 30.1812C35.4158 29.4733 34.5508 29.1183 33.3976 29.1183C32.3969 29.1183 31.6337 29.4223 31.108 30.0282C30.5822 30.6298 30.2939 31.3548 30.243 32.2052V44H23.4336V32.8174C23.4336 31.763 23.1453 30.8849 22.5686 30.1812C21.992 29.4733 21.1271 29.1183 19.9738 29.1183C18.9223 29.1183 18.1336 29.4478 17.6079 30.1047C17.0863 30.7574 16.8277 31.5334 16.8277 32.4348V44H10.0183Z" fill="#ffffff"/>
<path d="M72.6151 44V24.22H79.4245V26.3035H79.5008C81.2646 24.5304 83.1472 23.6418 85.1485 23.6418C86.1194 23.6418 87.0861 23.7736 88.0486 24.033C89.009 24.2881 89.9311 24.6856 90.8131 25.2235C91.6992 25.7635 92.4179 26.5288 92.967 27.5195C93.5203 28.506 93.798 29.6583 93.798 30.9721V44H86.9971V32.8174C86.9971 31.7927 86.6685 30.8934 86.0134 30.1217C85.3626 29.3521 84.5125 28.9652 83.4609 28.9652C82.4306 28.9652 81.5021 29.3649 80.671 30.1642C79.84 30.9593 79.4245 31.8437 79.4245 32.8174V44H72.6151Z" fill="#ffffff"/>
<path d="M97.1143 13.199C97.9114 12.3997 98.8611 12 99.9635 12C101.066 12 102.011 12.3997 102.804 13.199C103.601 13.9942 104 14.9423 104 16.0478C104 17.1533 103.601 18.1058 102.804 18.9051C102.011 19.7002 101.066 20.0957 99.9635 20.0957C98.8611 20.0957 97.9114 19.7002 97.1143 18.9051C96.3214 18.1058 95.9271 17.1533 95.9271 16.0478C95.9271 14.9423 96.3214 13.9942 97.1143 13.199ZM96.4613 24.22V44H103.271V24.22H96.4613Z" fill="#ffffff"/>
</svg>
