<?xml version="1.0" standalone="no"?>
<!DOCTYPE svg PUBLIC "-//W3C//DTD SVG 20010904//EN"
 "http://www.w3.org/TR/2001/REC-SVG-20010904/DTD/svg10.dtd">
<svg version="1.0" xmlns="http://www.w3.org/2000/svg"
 width="612.000000pt" height="612.000000pt" viewBox="0 0 612.000000 612.000000"
 preserveAspectRatio="xMidYMid meet">

<g transform="translate(0.000000,612.000000) scale(0.100000,-0.100000)"
fill="#000000" stroke="none">
<path d="M2027 4090 c-15 -21 -27 -42 -27 -47 0 -5 34 -32 75 -61 41 -29 75
-56 75 -61 0 -5 -44 -71 -98 -147 -54 -77 -183 -260 -286 -409 -104 -148 -192
-274 -197 -279 -4 -5 -44 17 -88 48 l-81 56 -30 -41 c-16 -23 -27 -45 -25 -49
7 -11 234 -170 243 -170 6 0 33 36 64 83 7 11 217 -140 218 -157 0 -5 -18 -35
-40 -68 -36 -54 -40 -67 -40 -122 0 -81 36 -143 102 -175 24 -11 50 -21 56
-21 8 0 12 -19 12 -52 0 -71 30 -130 86 -167 53 -35 106 -45 154 -31 29 9 37
8 45 -6 56 -92 156 -136 238 -105 22 9 28 5 52 -34 68 -106 207 -121 300 -31
23 23 44 48 47 56 4 12 23 3 81 -38 42 -29 92 -59 112 -67 96 -41 208 8 250
108 l16 39 27 -18 c102 -68 137 -84 183 -84 57 0 106 19 140 57 29 31 59 84
59 106 0 9 14 13 48 13 54 1 105 24 144 67 38 42 51 89 46 162 l-5 62 33 16
c52 25 87 87 92 163 l4 64 69 64 c62 58 257 196 276 196 4 0 21 -20 36 -45 16
-25 33 -45 38 -45 7 0 127 80 248 167 7 5 -49 83 -60 83 -6 0 -44 -23 -85 -52
-43 -29 -78 -47 -83 -42 -28 32 -570 810 -577 829 -4 9 21 32 70 66 42 29 76
57 76 61 0 4 -12 25 -27 47 l-28 38 -119 -81 c-65 -44 -120 -86 -123 -93 -3
-6 7 -28 21 -49 14 -21 23 -40 21 -43 -2 -4 -34 -27 -72 -53 l-69 -47 -89 25
c-50 13 -155 36 -235 51 -126 22 -174 26 -370 27 -223 1 -225 1 -280 -25 -30
-15 -72 -40 -94 -58 -37 -30 -43 -31 -128 -31 -54 0 -102 6 -123 14 -46 19
-155 94 -155 106 0 6 13 29 30 51 l29 41 -52 36 c-29 20 -81 56 -117 82 -36
25 -70 49 -75 52 -6 3 -22 -11 -38 -32z m221 -369 c96 -65 142 -84 215 -89 37
-3 67 -7 67 -10 0 -2 -35 -51 -77 -109 -126 -169 -133 -182 -133 -233 0 -101
77 -155 220 -155 69 1 94 5 133 24 73 36 149 112 212 211 41 65 62 90 77 90
11 0 95 -55 186 -122 162 -120 242 -176 616 -431 216 -147 236 -164 236 -207
0 -40 -47 -90 -84 -90 -26 0 -127 66 -415 268 -79 56 -149 102 -155 102 -11 0
-71 -79 -65 -84 2 -1 117 -80 254 -174 372 -256 339 -229 343 -285 3 -42 -1
-51 -28 -78 -26 -26 -36 -30 -63 -25 -18 3 -44 15 -58 25 -36 26 -477 333
-511 355 l-26 17 -31 -45 -31 -45 147 -102 c82 -56 190 -131 241 -167 51 -35
99 -70 107 -79 24 -23 19 -80 -10 -108 -45 -46 -76 -36 -231 72 -273 189 -456
313 -464 313 -13 0 -62 -82 -53 -90 4 -4 80 -56 168 -116 88 -60 167 -116 177
-126 18 -18 24 -74 10 -94 -14 -20 -57 -44 -80 -44 -12 0 -69 31 -126 70 -88
59 -105 74 -111 102 -18 80 -62 133 -130 155 -24 8 -29 15 -27 36 9 75 -47
164 -124 193 -34 13 -43 21 -38 33 31 75 -1 183 -69 232 -51 37 -113 46 -177
25 l-50 -16 -42 44 c-44 45 -93 66 -153 66 -38 0 -104 -30 -129 -59 -11 -11
-22 -21 -26 -21 -16 0 -205 153 -205 166 0 17 436 644 448 644 4 0 34 -17 65
-39z m1917 -286 c124 -176 225 -324 225 -330 0 -5 -29 -26 -63 -47 -82 -48
-159 -106 -225 -170 -51 -50 -55 -52 -78 -38 -13 8 -105 71 -204 140 l-180
124 65 21 c65 22 120 54 120 71 0 5 -12 25 -27 44 l-27 34 -55 -28 c-51 -26
-63 -28 -139 -24 -104 5 -162 31 -294 130 -268 202 -268 202 -331 195 -61 -7
-88 -29 -157 -135 -34 -50 -72 -103 -85 -117 -39 -41 -117 -75 -174 -75 -63 0
-119 30 -109 57 4 10 72 105 151 211 114 152 154 198 190 220 l47 27 210 -1
c252 0 432 -26 654 -94 l63 -20 92 64 c50 36 95 64 99 63 4 -1 109 -146 232
-322z m-2014 -526 c28 -15 48 -66 39 -99 -8 -28 -119 -184 -152 -212 -30 -27
-89 -23 -117 6 -43 45 -34 80 52 196 43 58 85 108 95 112 26 10 61 9 83 -3z
m310 -98 c19 -19 29 -40 29 -59 0 -31 -8 -44 -109 -182 -34 -47 -83 -115 -108
-151 -55 -78 -90 -103 -133 -94 -37 8 -70 49 -70 85 0 30 16 55 174 274 55 76
109 142 120 146 39 16 67 10 97 -19z m138 -271 c24 -13 45 -64 37 -93 -8 -32
-149 -222 -171 -231 -86 -32 -160 59 -108 134 42 63 129 176 143 187 18 15 74
17 99 3z m164 -240 c54 -42 44 -153 -16 -191 -86 -54 -170 38 -116 128 51 86
83 101 132 63z"/>
</g>
</svg>
